<svg width="59" height="59" viewBox="0 0 59 59" fill="none" xmlns="http://www.w3.org/2000/svg">
<path d="M12.4047 16.9155L2.2554 27.0648C1.00978 28.3104 1.00978 30.33 2.2554 31.5756L14.6601 43.9803L27.0648 56.385C28.3104 57.6306 30.33 57.6306 31.5756 56.385L43.9803 43.9803L56.385 31.5756C57.6306 30.33 57.6306 28.3104 56.385 27.0648L51.3103 21.9901L46.2357 16.9155C44.99 15.6699 42.9705 15.6699 41.7249 16.9155L36.6502 21.9901L32.9852 25.6552L31.5756 27.0648C30.33 28.3104 28.3105 28.3105 27.0649 27.0649L21.9901 21.9901L16.9155 16.9155C15.6699 15.6699 13.6503 15.6699 12.4047 16.9155Z" fill="url(#paint0_linear)"/>
<path d="M27.0648 2.25541L20.5805 8.73968C19.3349 9.9853 19.3349 12.0049 20.5805 13.2505L27.0648 19.7347C28.3104 20.9804 30.33 20.9804 31.5756 19.7347L38.0599 13.2505C39.3055 12.0049 39.3055 9.9853 38.0599 8.73968L31.5756 2.25541C30.33 1.00978 28.3104 1.00978 27.0648 2.25541Z" fill="url(#paint1_linear)"/>
<defs>
<linearGradient id="paint0_linear" x1="14.6601" y1="14.6601" x2="43.9803" y2="43.9803" gradientUnits="userSpaceOnUse">
<stop stop-color="#BB55EC"/>
<stop offset="1" stop-color="#9B06E3"/>
</linearGradient>
<linearGradient id="paint1_linear" x1="14.6601" y1="14.6601" x2="43.9803" y2="43.9803" gradientUnits="userSpaceOnUse">
<stop stop-color="#BB55EC"/>
<stop offset="1" stop-color="#9B06E3"/>
</linearGradient>
</defs>
</svg>
