<svg width="175" height="50" viewBox="0 0 175 50" fill="#FFFFFF" xmlns="http://www.w3.org/2000/svg">
<path d="M87.9683 34.9332C85.1799 34.9332 82.9568 34.1255 81.2988 32.5102C79.666 30.8696 78.7993 28.5727 78.6988 25.6196L78.6611 24.6731L78.6988 23.7266C78.8244 20.8492 79.7036 18.5902 81.3365 16.9496C82.9944 15.309 85.2051 14.4887 87.9683 14.4887C90.9326 14.4887 93.2185 15.3974 94.8263 17.2146C96.4591 19.0319 97.2755 21.455 97.2755 24.4838V25.2789C97.2755 25.5313 97.1876 25.7458 97.0118 25.9225C96.8359 26.0992 96.6098 26.1875 96.3335 26.1875H83.8234V26.4904C83.8737 27.8786 84.2505 29.0523 84.9538 30.0114C85.6823 30.9453 86.6746 31.4122 87.9306 31.4122C89.4128 31.4122 90.606 30.8317 91.5103 29.6706C91.7364 29.393 91.9123 29.2163 92.0379 29.1406C92.1886 29.0649 92.4021 29.027 92.6784 29.027H95.919C96.1451 29.027 96.3335 29.1027 96.4842 29.2542C96.6601 29.3804 96.748 29.5444 96.748 29.7464C96.748 30.3521 96.3837 31.0715 95.6552 31.9044C94.9519 32.7121 93.9345 33.4188 92.6031 34.0246C91.2717 34.6303 89.7268 34.9332 87.9683 34.9332ZM92.1509 23.0073V22.8937C92.1509 21.4045 91.7741 20.2056 91.0205 19.297C90.292 18.3883 89.2746 17.934 87.9683 17.934C86.6621 17.934 85.6447 18.3883 84.9162 19.297C84.1877 20.2056 83.8234 21.4045 83.8234 22.8937V23.0073H92.1509Z" fill="#280A36"/>
<path d="M102.217 41.748C101.966 41.748 101.753 41.6597 101.577 41.483C101.401 41.3316 101.313 41.117 101.313 40.8394V15.776C101.313 15.4983 101.401 15.2838 101.577 15.1323C101.753 14.9557 101.966 14.8673 102.217 14.8673H105.194C105.47 14.8673 105.684 14.9557 105.835 15.1323C106.011 15.2838 106.098 15.4983 106.098 15.776V17.2904C107.505 15.4226 109.515 14.4887 112.127 14.4887C114.665 14.4887 116.611 15.2964 117.968 16.9118C119.324 18.5019 120.053 20.6599 120.153 23.3859C120.179 23.6887 120.191 24.1304 120.191 24.711C120.191 25.3167 120.179 25.771 120.153 26.0739C120.053 28.7241 119.324 30.8696 117.968 32.5102C116.611 34.1255 114.665 34.9332 112.127 34.9332C109.59 34.9332 107.656 34.0372 106.325 32.2451V40.8394C106.325 41.117 106.237 41.3316 106.061 41.483C105.91 41.6597 105.697 41.748 105.42 41.748H102.217ZM110.733 30.8822C113.446 30.8822 114.891 29.2037 115.067 25.8468C115.092 25.5944 115.104 25.2158 115.104 24.711C115.104 24.2062 115.092 23.8276 115.067 23.5752C114.891 20.2182 113.446 18.5398 110.733 18.5398C109.276 18.5398 108.196 19.0067 107.493 19.9406C106.789 20.8745 106.4 22.0229 106.325 23.3859L106.287 24.8245L106.325 26.3011C106.375 27.5631 106.764 28.6484 107.493 29.5571C108.246 30.4405 109.326 30.8822 110.733 30.8822Z" fill="#280A36"/>
<path d="M125.363 34.5546C125.112 34.5546 124.898 34.4663 124.723 34.2896C124.547 34.1129 124.459 33.8984 124.459 33.646V8.58253C124.459 8.30489 124.547 8.09035 124.723 7.93891C124.898 7.76223 125.112 7.67389 125.363 7.67389H128.491C128.767 7.67389 128.98 7.76223 129.131 7.93891C129.307 8.09035 129.395 8.30489 129.395 8.58253V33.646C129.395 33.8984 129.307 34.1129 129.131 34.2896C128.98 34.4663 128.767 34.5546 128.491 34.5546H125.363Z" fill="#280A36"/>
<path d="M143.108 35.0279C140.169 35.0279 137.896 34.2707 136.288 32.7562C134.805 31.3358 133.953 29.4428 133.731 27.0772C133.712 26.8786 133.698 26.6767 133.688 26.4715L133.659 25.1842L133.651 24.8056L133.688 23.1398C133.814 20.5148 134.693 18.4325 136.326 16.8928C137.053 16.2074 137.904 15.6745 138.88 15.2942C139.469 15.0649 140.103 14.891 140.782 14.7727C141.506 14.6465 142.281 14.5834 143.108 14.5834C145.997 14.5834 148.258 15.3532 149.891 16.8928C151.524 18.4325 152.403 20.5148 152.529 23.1398C152.554 23.4426 152.566 23.9979 152.566 24.8056C152.566 25.6133 152.554 26.1686 152.529 26.4715C152.403 29.1217 151.536 31.2166 149.929 32.7562C148.321 34.2707 146.048 35.0279 143.108 35.0279ZM143.108 31.2797C144.44 31.2797 145.47 30.8632 146.198 30.0303C146.927 29.1722 147.329 27.9228 147.404 26.2822C147.429 26.0298 147.442 25.5376 147.442 24.8056C147.442 24.0737 147.429 23.5815 147.404 23.3291C147.329 21.6885 146.927 20.4517 146.198 19.6188C145.528 18.8286 144.601 18.4022 143.419 18.3396C143.317 18.3342 143.214 18.3315 143.108 18.3315C142.597 18.3315 142.129 18.395 141.706 18.5219C141.03 18.725 140.467 19.0906 140.019 19.6188C139.29 20.4517 138.888 21.6885 138.813 23.3291L138.775 24.8056L138.785 25.1842L138.813 26.2822C138.826 26.5583 138.847 26.8233 138.879 27.0772C139.033 28.3322 139.413 29.3166 140.019 30.0303C140.747 30.8632 141.777 31.2797 143.108 31.2797Z" fill="#280A36"/>
<path d="M159.425 41.748C159.224 41.748 159.048 41.6723 158.898 41.5209C158.747 41.3694 158.672 41.1928 158.672 40.9908C158.672 40.7637 158.722 40.5618 158.822 40.3851L161.761 33.3809L154.527 16.2303C154.426 16.0031 154.376 15.8264 154.376 15.7002C154.401 15.4731 154.489 15.2838 154.64 15.1323C154.79 14.9557 154.979 14.8673 155.205 14.8673H158.257C158.734 14.8673 159.074 15.1071 159.274 15.5867L164.286 27.9669L169.448 15.5867C169.649 15.1071 169.988 14.8673 170.466 14.8673H173.48C173.681 14.8673 173.857 14.943 174.008 15.0945C174.184 15.2459 174.272 15.4226 174.272 15.6245C174.272 15.8012 174.221 16.0031 174.121 16.2303L163.457 41.0287C163.231 41.5083 162.879 41.748 162.402 41.748H159.425Z" fill="#280A36"/>
<path d="M64.9771 34.5546C64.7259 34.5546 64.5123 34.4663 64.3365 34.2896C64.1606 34.1129 64.0727 33.8984 64.0727 33.646V32.5742V31.2637V15.8138C64.0727 15.5614 64.1606 15.3469 64.3365 15.1702C64.5123 14.9683 64.7259 14.8673 64.9771 14.8673H68.0292C68.3055 14.8673 68.5316 14.9557 68.7075 15.1323C68.8833 15.309 68.9712 15.5362 68.9712 15.8138V17.3661C69.5741 16.5584 70.3278 15.94 71.2321 15.5109C72.1616 15.0819 73.2166 14.8673 74.3973 14.8673H75.9422C76.2185 14.8673 76.4321 14.9557 76.5828 15.1323C76.7586 15.2838 76.8466 15.4983 76.8466 15.776V18.5019C76.8466 18.7543 76.7586 18.9688 76.5828 19.1455C76.4321 19.3222 76.2185 19.4105 75.9422 19.4105H73.0031C71.8224 19.4105 70.893 19.7513 70.2147 20.4328C69.5365 21.1142 69.1973 22.0481 69.1973 23.2344V31.2637V32.5742V33.646C69.1973 33.8984 69.1094 34.1129 68.9336 34.2896C68.7577 34.4663 68.5316 34.5546 68.2553 34.5546H64.9771Z" fill="#280A36"/>
<path d="M10.5974 14.4231L1.92679 23.0769C0.862655 24.139 0.862655 25.861 1.92679 26.9231L12.5242 37.5L23.1215 48.0769C24.1857 49.139 25.911 49.139 26.9751 48.0769L37.5725 37.5L48.1699 26.9231C49.234 25.861 49.234 24.139 48.1699 23.0769L43.8346 18.75L39.4993 14.4231C38.4351 13.361 36.7098 13.361 35.6457 14.4231L31.3104 18.75L28.1794 21.875L26.9751 23.0769C25.911 24.139 24.1858 24.1391 23.1216 23.077L18.7862 18.75L14.451 14.4231C13.3868 13.361 11.6615 13.361 10.5974 14.4231Z" fill="url(#paint0_linear)"/>
<path d="M23.1215 1.92308L17.582 7.45192C16.5179 8.51401 16.5179 10.236 17.582 11.2981L23.1215 16.8269C24.1857 17.889 25.911 17.889 26.9751 16.8269L32.5147 11.2981C33.5788 10.236 33.5788 8.51401 32.5147 7.45192L26.9751 1.92308C25.911 0.86099 24.1857 0.860989 23.1215 1.92308Z" fill="url(#paint1_linear)"/>
<defs>
<linearGradient id="paint0_linear" x1="12.5242" y1="12.5" x2="24.971" y2="27.524" gradientUnits="userSpaceOnUse">
<stop stop-color="#B559E2"/>
<stop offset="1" stop-color="#9B06E3"/>
</linearGradient>
<linearGradient id="paint1_linear" x1="12.5242" y1="12.5" x2="24.971" y2="27.524" gradientUnits="userSpaceOnUse">
<stop stop-color="#B559E2"/>
<stop offset="1" stop-color="#9B06E3"/>
</linearGradient>
</defs>
</svg>
