<svg width="147" height="41" viewBox="0 0 147 41" fill="none" xmlns="http://www.w3.org/2000/svg">
<path d="M75.8032 28.5497C73.5313 28.5497 71.7199 27.8914 70.369 26.5749C69.0385 25.2378 68.3324 23.3659 68.2505 20.9591L68.2198 20.1877L68.2505 19.4163C68.3529 17.0712 69.0692 15.2302 70.3997 13.8931C71.7506 12.556 73.5517 11.8874 75.8032 11.8874C78.2185 11.8874 80.0811 12.628 81.391 14.1091C82.7214 15.5901 83.3866 17.5649 83.3866 20.0334V20.6814C83.3866 20.8871 83.315 21.062 83.1717 21.206C83.0285 21.3499 82.8442 21.4219 82.6191 21.4219H72.426V21.6688C72.4669 22.8002 72.774 23.7567 73.3471 24.5384C73.9406 25.2995 74.7491 25.6801 75.7725 25.6801C76.9801 25.6801 77.9524 25.207 78.6892 24.2607C78.8734 24.0344 79.0167 23.8904 79.1191 23.8287C79.2419 23.767 79.4158 23.7362 79.641 23.7362H82.2814C82.4656 23.7362 82.6191 23.7979 82.7419 23.9213C82.8852 24.0241 82.9568 24.1579 82.9568 24.3224C82.9568 24.8161 82.66 25.4024 82.0665 26.0812C81.4934 26.7395 80.6644 27.3155 79.5796 27.8092C78.4948 28.3029 77.236 28.5497 75.8032 28.5497ZM79.2112 18.83V18.7375C79.2112 17.5238 78.9041 16.5467 78.2901 15.8061C77.6965 15.0656 76.8676 14.6953 75.8032 14.6953C74.7389 14.6953 73.9099 15.0656 73.3164 15.8061C72.7228 16.5467 72.426 17.5238 72.426 18.7375V18.83H79.2112Z" fill="black"/>
<path d="M87.4132 34.1038C87.2085 34.1038 87.0345 34.0318 86.8912 33.8878C86.748 33.7644 86.6763 33.5895 86.6763 33.3633V12.9365C86.6763 12.7102 86.748 12.5354 86.8912 12.412C87.0345 12.268 87.2085 12.196 87.4132 12.196H89.8386C90.0638 12.196 90.2378 12.268 90.3606 12.412C90.5039 12.5354 90.5755 12.7102 90.5755 12.9365V14.1708C91.7217 12.6485 93.3591 11.8874 95.4878 11.8874C97.5551 11.8874 99.1414 12.5457 100.247 13.8622C101.352 15.1582 101.945 16.917 102.027 19.1386C102.048 19.3854 102.058 19.7454 102.058 20.2186C102.058 20.7123 102.048 21.0825 102.027 21.3294C101.945 23.4893 101.352 25.2378 100.247 26.5749C99.1414 27.8914 97.5551 28.5497 95.4878 28.5497C93.4206 28.5497 91.8445 27.8194 90.7597 26.3589V33.3633C90.7597 33.5895 90.6881 33.7644 90.5448 33.8878C90.422 34.0318 90.248 34.1038 90.0229 34.1038H87.4132ZM94.3518 25.2481C96.5624 25.2481 97.7393 23.8802 97.8826 21.1442C97.9031 20.9385 97.9133 20.63 97.9133 20.2186C97.9133 19.8071 97.9031 19.4986 97.8826 19.2929C97.7393 16.557 96.5624 15.189 94.3518 15.189C93.1647 15.189 92.2846 15.5696 91.7115 16.3307C91.1384 17.0918 90.8211 18.0278 90.7597 19.1386L90.729 20.3111L90.7597 21.5145C90.8006 22.5431 91.1179 23.4276 91.7115 24.1681C92.3255 24.8881 93.2056 25.2481 94.3518 25.2481Z" fill="black"/>
<path d="M106.272 28.2411C106.067 28.2411 105.894 28.1692 105.75 28.0252C105.607 27.8812 105.535 27.7063 105.535 27.5006V7.07386C105.535 6.84758 105.607 6.67273 105.75 6.54931C105.894 6.40531 106.067 6.33331 106.272 6.33331H108.82C109.046 6.33331 109.22 6.40531 109.342 6.54931C109.486 6.67273 109.557 6.84758 109.557 7.07386V27.5006C109.557 27.7063 109.486 27.8812 109.342 28.0252C109.22 28.1692 109.046 28.2411 108.82 28.2411H106.272Z" fill="black"/>
<path d="M120.731 28.6268C118.336 28.6268 116.484 28.0097 115.174 26.7755C113.965 25.6178 113.271 24.075 113.09 22.1471C113.075 21.9852 113.063 21.8206 113.055 21.6534L113.032 20.6043L113.025 20.2957L113.055 18.938C113.158 16.7987 113.874 15.1016 115.205 13.8468C115.797 13.2881 116.491 12.8538 117.286 12.5439C117.765 12.357 118.282 12.2153 118.835 12.1188C119.425 12.016 120.057 11.9646 120.731 11.9646C123.085 11.9646 124.927 12.592 126.257 13.8468C127.588 15.1016 128.304 16.7987 128.406 18.938C128.427 19.1849 128.437 19.6374 128.437 20.2957C128.437 20.954 128.427 21.4065 128.406 21.6534C128.304 23.8133 127.598 25.5207 126.288 26.7755C124.978 28.0097 123.126 28.6268 120.731 28.6268ZM120.731 25.5721C121.816 25.5721 122.655 25.2327 123.249 24.5538C123.842 23.8544 124.17 22.8362 124.231 21.4991C124.251 21.2934 124.262 20.8923 124.262 20.2957C124.262 19.6992 124.251 19.298 124.231 19.0923C124.17 17.7552 123.842 16.7472 123.249 16.0684C122.702 15.4244 121.947 15.0769 120.984 15.0259C120.901 15.0215 120.817 15.0193 120.731 15.0193C120.314 15.0193 119.933 15.071 119.588 15.1744C119.037 15.3399 118.579 15.6379 118.213 16.0684C117.62 16.7472 117.292 17.7552 117.231 19.0923L117.2 20.2957L117.208 20.6043L117.231 21.4991C117.241 21.7241 117.259 21.9401 117.285 22.1471C117.41 23.1699 117.72 23.9721 118.213 24.5538C118.807 25.2327 119.646 25.5721 120.731 25.5721Z" fill="black"/>
<path d="M134.026 34.1038C133.862 34.1038 133.719 34.0421 133.596 33.9187C133.473 33.7952 133.412 33.6512 133.412 33.4867C133.412 33.3015 133.453 33.137 133.534 32.993L135.929 27.2846L130.034 13.3068C129.953 13.1217 129.912 12.9777 129.912 12.8748C129.932 12.6897 130.004 12.5354 130.126 12.412C130.249 12.268 130.403 12.196 130.587 12.196H133.074C133.463 12.196 133.739 12.3914 133.903 12.7822L137.986 22.8722L142.192 12.7822C142.356 12.3914 142.632 12.196 143.021 12.196H145.478C145.641 12.196 145.785 12.2577 145.907 12.3811C146.051 12.5045 146.122 12.6485 146.122 12.8131C146.122 12.9571 146.081 13.1217 145.999 13.3068L137.311 33.5175C137.127 33.9084 136.84 34.1038 136.451 34.1038H134.026Z" fill="black"/>
<path d="M57.0702 28.2411C56.8655 28.2411 56.6915 28.1692 56.5482 28.0252C56.405 27.8812 56.3333 27.7063 56.3333 27.5006V26.6271V25.559V12.9674C56.3333 12.7617 56.405 12.5868 56.5482 12.4428C56.6915 12.2783 56.8655 12.196 57.0702 12.196H59.557C59.7822 12.196 59.9664 12.268 60.1097 12.412C60.2529 12.556 60.3246 12.7411 60.3246 12.9674V14.2325C60.8158 13.5742 61.4299 13.0702 62.1667 12.7205C62.924 12.3708 63.7837 12.196 64.7457 12.196H66.0045C66.2296 12.196 66.4036 12.268 66.5264 12.412C66.6697 12.5354 66.7413 12.7102 66.7413 12.9365V15.1582C66.7413 15.3639 66.6697 15.5387 66.5264 15.6827C66.4036 15.8267 66.2296 15.8987 66.0045 15.8987H63.6097C62.6477 15.8987 61.8904 16.1764 61.3378 16.7318C60.7851 17.2872 60.5088 18.0483 60.5088 19.0152V25.559V26.6271V27.5006C60.5088 27.7063 60.4372 27.8812 60.2939 28.0252C60.1506 28.1692 59.9664 28.2411 59.7412 28.2411H57.0702Z" fill="black"/>
<path d="M8.64474 11.741L1.57177 18.7856C0.703706 19.6502 0.703705 21.052 1.57177 21.9165L10.2165 30.5266L18.8612 39.1367C19.7293 40.0013 21.1367 40.0013 22.0048 39.1367L30.6495 30.5266L39.2943 21.9165C40.1623 21.052 40.1623 19.6502 39.2943 18.7856L35.7578 15.2633L32.2213 11.741C31.3532 10.8764 29.9458 10.8764 29.0778 11.741L25.5413 15.2633L22.9871 17.8072L22.0048 18.7856C21.1367 19.6502 19.7294 19.6503 18.8613 18.7857L15.3248 15.2633L11.7883 11.741C10.9202 10.8764 9.5128 10.8764 8.64474 11.741Z" fill="url(#paint0_linear)"/>
<path d="M18.8612 1.56544L14.3424 6.06617C13.4743 6.93075 13.4743 8.33252 14.3424 9.19711L18.8612 13.6978C19.7293 14.5624 21.1367 14.5624 22.0048 13.6978L26.5236 9.19711C27.3917 8.33252 27.3917 6.93075 26.5236 6.06617L22.0048 1.56544C21.1367 0.700858 19.7293 0.700858 18.8612 1.56544Z" fill="url(#paint1_linear)"/>
<defs>
<linearGradient id="paint0_linear" x1="10.2165" y1="10.1755" x2="30.5674" y2="30.6084" gradientUnits="userSpaceOnUse">
<stop stop-color="#BB55EC"/>
<stop offset="1" stop-color="#9B06E3"/>
</linearGradient>
<linearGradient id="paint1_linear" x1="10.2165" y1="10.1755" x2="30.5674" y2="30.6084" gradientUnits="userSpaceOnUse">
<stop stop-color="#BB55EC"/>
<stop offset="1" stop-color="#9B06E3"/>
</linearGradient>
</defs>
</svg>
